HIERARCHY
ROOT Hips
{
	OFFSET -0.001795 -0.223333 0.028219
	CHANNELS 6 Xposition Yposition Zposition Zrotation Yrotation Xrotation 
	JOINT LeftUpLeg
	{
		OFFSET 0.069520 -0.091406 -0.006815
		CHANNELS 3 Zrotation Yrotation Xrotation
		JOINT LeftLeg
		{
			OFFSET 0.034277 -0.375199 -0.004496
			CHANNELS 3 Zrotation Yrotation Xrotation
			JOINT LeftFoot
			{
				OFFSET -0.013596 -0.397961 -0.043693
				CHANNELS 3 Zrotation Yrotation Xrotation
				JOINT LeftToe
				{
					OFFSET 0.026358 -0.055791 0.119288
					CHANNELS 3 Zrotation Yrotation Xrotation
					End Site
					{
						OFFSET 0.000000 0.000000 0.000000
					}
				}
			}
		}
	}
	JOINT RightUpLeg
	{
		OFFSET -0.067670 -0.090522 -0.004320
		CHANNELS 3 Zrotation Yrotation Xrotation
		JOINT RightLeg
		{
			OFFSET -0.038290 -0.382569 -0.008850
			CHANNELS 3 Zrotation Yrotation Xrotation
			JOINT RightFoot
			{
				OFFSET 0.015774 -0.398415 -0.042312
				CHANNELS 3 Zrotation Yrotation Xrotation
				JOINT RightToe
				{
					OFFSET -0.025372 -0.048144 0.123348
					CHANNELS 3 Zrotation Yrotation Xrotation
					End Site
					{
						OFFSET 0.000000 0.000000 0.000000
					}
				}
			}
		}
	}
	JOINT Spine
	{
		OFFSET -0.002533 0.108963 -0.026696
		CHANNELS 3 Zrotation Yrotation Xrotation
		JOINT Spine1
		{
			OFFSET 0.005487 0.135180 0.001092
			CHANNELS 3 Zrotation Yrotation Xrotation
			JOINT Spine2
			{
				OFFSET 0.001457 0.052922 0.025425
				CHANNELS 3 Zrotation Yrotation Xrotation
				JOINT Neck
				{
					OFFSET -0.002778 0.213870 -0.042857
					CHANNELS 3 Zrotation Yrotation Xrotation
					JOINT Head
					{
						OFFSET 0.005152 0.064970 0.051349
						CHANNELS 3 Zrotation Yrotation Xrotation
						End Site
						{
							OFFSET 0.000000 0.000000 0.000000
						}
					}
				}
				JOINT LeftShoulder
				{
					OFFSET 0.078845 0.121749 -0.034090
					CHANNELS 3 Zrotation Yrotation Xrotation
					JOINT LeftArm
					{
						OFFSET 0.090977 0.030469 -0.008868
						CHANNELS 3 Zrotation Yrotation Xrotation
						JOINT LeftForeArm
						{
							OFFSET 0.259612 -0.012772 -0.027456
							CHANNELS 3 Zrotation Yrotation Xrotation
							JOINT LeftHand
							{
								OFFSET 0.249234 0.008986 -0.001171
								CHANNELS 3 Zrotation Yrotation Xrotation
								End Site
								{
									OFFSET 0.000000 0.000000 0.000000
								}
							}
						}
					}
				}
				JOINT RightShoulder
				{
					OFFSET -0.081759 0.118833 -0.038615
					CHANNELS 3 Zrotation Yrotation Xrotation
					JOINT RightArm
					{
						OFFSET -0.096012 0.032551 -0.009143
						CHANNELS 3 Zrotation Yrotation Xrotation
						JOINT RightForeArm
						{
							OFFSET -0.253742 -0.013329 -0.021401
							CHANNELS 3 Zrotation Yrotation Xrotation
							JOINT RightHand
							{
								OFFSET -0.255298 0.007772 -0.005559
								CHANNELS 3 Zrotation Yrotation Xrotation
								End Site
								{
									OFFSET 0.000000 0.000000 0.000000
								}
							}
						}
					}
				}
			}
		}
	}
}
MOTION
Frames: 17
Frame Time: 0.050000
0.000000 0.848986 0.000000 -5.407007 -2.839407 7.082761 22.510922 3.758288 -33.839152 -16.747476 6.786252 35.367600 29.156553 45.328111 15.247870 0.000000 0.000000 0.000000 -8.764447 1.764431 -39.536214 28.023719 -10.314712 35.226524 -17.099947 -35.961855 10.938748 0.000000 0.000000 0.000000 -6.472966 1.409921 45.444998 3.468574 -0.317573 -22.691206 1.894364 2.824938 23.627208 -4.325391 4.247100 -19.186962 0.000000 0.000000 0.000000 -22.777452 -29.056069 15.497759 -36.882492 -47.529272 8.393090 13.790513 -16.517773 -1.227447 0.000000 0.000000 0.000000 16.144519 33.994241 17.318881 50.970400 51.177088 16.696434 -10.574547 13.618890 -0.580977 0.000000 0.000000 0.000000 
-0.000462 0.823947 -0.002277 -6.719917 -2.874434 6.664257 25.904187 5.600195 -38.348477 -19.093241 9.417348 43.705789 28.847709 45.424859 13.973757 0.000000 0.000000 0.000000 -10.766416 1.217973 -42.244634 33.531454 -13.472179 37.472316 -18.633412 -37.900503 12.404454 0.000000 0.000000 0.000000 -7.361851 1.997374 49.532811 3.433272 -0.304684 -22.855270 3.843139 1.469118 22.258330 -7.168977 5.740059 -21.078214 0.000000 0.000000 0.000000 -25.075556 -28.806166 16.398743 -32.896758 -48.342145 7.290174 16.727435 -16.682706 -1.618317 0.000000 0.000000 0.000000 11.706403 35.973153 16.519361 56.444696 54.247852 21.394121 -13.373199 13.056963 -0.781276 0.000000 0.000000 0.000000 
-0.000626 0.799604 -0.003283 -6.540262 -3.485527 6.045238 27.315916 6.699307 -40.423409 -20.846994 11.593176 48.679416 28.983467 46.514700 11.653376 0.000000 0.000000 0.000000 -13.586503 0.384280 -44.325152 39.069318 -16.834152 39.839152 -19.702388 -40.304971 10.390866 0.000000 0.000000 0.000000 -7.381377 2.318384 52.658084 3.172030 -0.234012 -23.394429 2.571574 1.100091 21.102607 -8.443528 6.710273 -16.624224 0.000000 0.000000 0.000000 -26.011358 -30.144220 17.612900 -29.353628 -48.030282 6.027418 17.540096 -12.809684 -1.314387 0.000000 0.000000 0.000000 14.027128 38.943655 18.705390 54.603740 56.054790 21.624126 -14.581382 9.999727 -0.615740 0.000000 0.000000 0.000000 
-0.000859 0.776615 -0.003438 -7.395489 -5.052533 5.518285 29.877415 8.311854 -40.965979 -22.323155 13.765419 52.337990 28.920024 47.800215 8.454369 0.000000 0.000000 0.000000 -14.074129 0.549554 -45.689766 42.692277 -18.982931 41.806286 -19.172867 -41.510346 5.593361 0.000000 0.000000 0.000000 -8.704643 3.677839 55.635024 3.178238 -0.290527 -23.014985 3.220060 0.683974 20.456567 -11.501687 8.574385 -17.299773 0.000000 0.000000 0.000000 -25.103569 -31.241134 18.278451 -27.793502 -48.847702 5.754388 19.758401 -11.549391 -1.374881 0.000000 0.000000 0.000000 12.906328 41.629602 19.447910 51.994731 58.346653 21.640327 -15.340487 10.010190 -0.680631 0.000000 0.000000 0.000000 
-0.001139 0.752415 -0.003495 -8.167950 -6.310480 5.325598 32.196720 10.178332 -42.706453 -23.216378 15.965461 57.230712 28.724512 48.366840 6.468871 0.000000 0.000000 0.000000 -15.616035 0.293879 -48.055565 47.342720 -21.578837 42.777542 -20.220580 -43.183599 6.035910 0.000000 0.000000 0.000000 -9.684589 4.815132 57.568112 2.341602 -0.126057 -22.752863 3.357119 0.582762 20.146322 -11.808579 8.572912 -18.488055 0.000000 0.000000 0.000000 -21.969591 -32.320757 18.057726 -26.674253 -49.781174 5.679448 20.372937 -9.524618 -1.155759 0.000000 0.000000 0.000000 9.661606 41.843053 18.251908 55.657704 61.619610 25.820732 -16.574936 10.119990 -0.764202 0.000000 0.000000 0.000000 
-0.001452 0.730167 -0.003570 -8.817435 -7.159826 5.069470 34.447864 11.793305 -43.639145 -24.349450 17.967428 60.709764 28.178862 48.988898 3.550493 0.000000 0.000000 0.000000 -16.845082 0.033592 -49.043833 51.593534 -23.815239 42.993105 -19.407638 -43.813610 1.901949 0.000000 0.000000 0.000000 -10.249163 5.672255 59.666816 1.147286 0.187538 -23.710142 3.834878 -0.545978 20.875226 -13.674763 9.862828 -17.351673 0.000000 0.000000 0.000000 -22.322439 -33.189865 19.065437 -23.827692 -48.965938 4.379018 21.824613 -8.555304 -1.111302 0.000000 0.000000 0.000000 9.704510 42.480826 18.292454 54.706563 62.188228 25.361649 -17.245435 11.997419 -1.025449 0.000000 0.000000 0.000000 
-0.001748 0.709548 -0.003908 -9.388360 -7.750789 5.243586 35.980595 13.334411 -45.391285 -24.584475 19.415558 64.536366 27.722833 49.309952 1.561975 0.000000 0.000000 0.000000 -17.913546 -0.217770 -50.371426 55.803343 -25.711351 42.272991 -19.783707 -46.045934 -0.739870 0.000000 0.000000 0.000000 -10.840367 6.448940 61.064805 0.251569 0.396386 -23.844265 3.771860 -1.522030 20.913191 -15.658994 11.067023 -17.473869 0.000000 0.000000 0.000000 -21.761602 -33.390014 19.283691 -21.430510 -49.219726 3.569301 21.932570 -6.896696 -0.857186 0.000000 0.000000 0.000000 10.016699 42.235072 18.118223 54.448775 62.679874 25.347787 -17.645079 14.447953 -1.346959 0.000000 0.000000 0.000000 
-0.002266 0.695162 -0.004386 -10.094754 -8.598546 5.277242 36.991053 14.644532 -46.647439 -23.787717 19.974675 68.040643 27.417328 49.181903 0.819913 0.000000 0.000000 0.000000 -18.357836 -0.163586 -51.279893 59.530103 -26.954947 41.121455 -20.696633 -48.383760 -1.570314 0.000000 0.000000 0.000000 -11.618061 7.443128 62.352037 -0.639348 0.597605 -24.070131 4.278020 -2.045732 20.732488 -17.145743 12.465105 -14.984492 0.000000 0.000000 0.000000 -22.203963 -33.672514 19.799224 -19.460623 -48.199692 2.694225 23.001879 -6.283315 -0.804154 0.000000 0.000000 0.000000 12.544225 42.341861 18.961484 49.456752 61.217355 21.453164 -17.061890 17.555145 -1.657284 0.000000 0.000000 0.000000 
-0.002655 0.685892 -0.004632 -10.816578 -9.440781 5.560614 37.627321 15.613358 -47.286730 -22.826119 19.986600 70.229454 27.100645 49.230508 -0.263189 0.000000 0.000000 0.000000 -18.277201 0.128869 -51.820174 62.127389 -27.399939 39.874610 -20.982771 -50.035089 -3.025050 0.000000 0.000000 0.000000 -12.352115 8.371360 62.966566 -0.812577 0.639270 -24.555407 4.287117 -2.259380 21.369497 -18.354566 13.009998 -16.525409 0.000000 0.000000 0.000000 -21.526783 -33.414321 19.489077 -18.327333 -48.045688 2.268641 23.255591 -5.316127 -0.646368 0.000000 0.000000 0.000000 12.625437 41.940506 18.720191 47.568131 60.099832 19.675895 -16.963832 19.538320 -1.879623 0.000000 0.000000 0.000000 
-0.002898 0.681118 -0.004606 -11.549847 -9.924937 5.824621 37.753954 16.148656 -47.902521 -21.455958 19.366715 71.951473 26.806483 49.082808 -0.863440 0.000000 0.000000 0.000000 -18.424448 0.225400 -52.224164 64.766051 -27.539761 37.945182 -22.792463 -51.993431 -0.858027 0.000000 0.000000 0.000000 -12.482790 8.792943 63.706847 -1.756621 0.849289 -24.533240 4.194999 -2.524670 21.186769 -18.959570 13.450088 -16.145868 0.000000 0.000000 0.000000 -20.604422 -33.245524 19.143407 -18.249179 -47.221726 2.163426 23.619302 -5.377985 -0.661124 0.000000 0.000000 0.000000 12.769106 41.201611 18.353101 45.455868 58.918785 17.873938 -16.838312 22.041638 -2.155396 0.000000 0.000000 0.000000 
-0.002913 0.679747 -0.004446 -11.977825 -10.442309 6.427587 37.888484 16.594285 -48.177973 -20.910245 19.137292 72.347845 26.815276 49.200370 -1.112520 0.000000 0.000000 0.000000 -18.551906 0.370710 -53.059918 66.207278 -27.551286 36.903924 -24.073518 -52.917389 1.168563 0.000000 0.000000 0.000000 -12.730683 9.247612 63.878904 -2.024950 0.912614 -24.925857 3.955330 -2.778875 21.801805 -19.579614 13.705651 -16.802743 0.000000 0.000000 0.000000 -20.246709 -32.275097 18.586185 -18.448996 -47.155124 2.162141 24.435338 -4.927803 -0.578686 0.000000 0.000000 0.000000 12.259889 40.873115 17.988945 44.827419 58.779460 17.352660 -17.324873 22.324048 -2.264095 0.000000 0.000000 0.000000 
-0.002541 0.680210 -0.004354 -12.266015 -10.547822 6.771923 37.065751 16.538607 -49.067227 -19.380574 18.075033 73.406977 26.893102 48.968116 -0.454383 0.000000 0.000000 0.000000 -18.677991 0.376303 -53.453843 67.205908 -27.442755 35.895982 -25.707253 -53.923376 3.677592 0.000000 0.000000 0.000000 -12.509438 9.239407 64.249391 -2.181128 0.950847 -25.100566 3.744023 -2.680192 22.419818 -19.467344 13.578022 -17.173706 0.000000 0.000000 0.000000 -20.190093 -31.436583 18.077481 -18.766822 -47.251432 2.219207 25.525130 -4.230979 -0.451012 0.000000 0.000000 0.000000 10.950904 40.380192 17.354384 43.856819 58.977734 16.829649 -17.811686 22.941270 -2.424945 0.000000 0.000000 0.000000 
-0.001757 0.681903 -0.004503 -12.555374 -10.965190 7.190543 36.423198 16.500342 -49.345168 -16.775716 16.454622 75.902349 22.853469 44.581579 -4.596039 0.000000 0.000000 0.000000 -18.333587 0.679027 -53.938847 67.019813 -27.280294 36.010413 -25.705890 -53.763842 3.987921 0.000000 0.000000 0.000000 -11.957865 9.093254 64.425412 -2.002132 0.908179 -25.589717 3.475794 -2.401312 23.062453 -19.025163 13.107207 -18.161583 0.000000 0.000000 0.000000 -20.795583 -30.773058 17.871304 -19.292599 -46.756594 2.252362 26.469301 -4.033227 -0.410431 0.000000 0.000000 0.000000 10.202776 40.368479 17.160025 42.037086 58.994027 15.813257 -17.909021 23.060207 -2.460346 0.000000 0.000000 0.000000 
-0.000526 0.683850 -0.005111 -12.644950 -11.415815 7.350833 35.068661 16.220181 -50.057057 -13.216794 13.680715 78.427261 19.834596 39.865426 -6.184372 0.000000 0.000000 0.000000 -18.135819 0.923336 -54.543607 66.348188 -26.777860 36.004545 -27.664467 -54.457844 7.525955 0.000000 0.000000 0.000000 -11.412166 8.953704 64.635186 -2.004146 0.903685 -26.127281 3.139622 -2.295934 23.815715 -18.702166 12.602555 -19.856375 0.000000 0.000000 0.000000 -20.376085 -29.696882 17.120436 -20.566059 -46.712673 2.599532 27.439208 -4.293746 -0.450646 0.000000 0.000000 0.000000 9.163062 39.930544 16.613630 41.683363 59.058834 15.547768 -18.258634 24.075772 -2.651937 0.000000 0.000000 0.000000 
0.001080 0.687357 -0.006352 -12.679722 -11.808517 7.687674 34.317218 15.947863 -49.962586 -9.765561 10.443247 78.951916 16.186878 33.421610 -8.258877 0.000000 0.000000 0.000000 -17.649526 1.282022 -54.935169 63.964795 -25.685282 36.497046 -27.990228 -53.852775 9.332383 0.000000 0.000000 0.000000 -10.801751 8.704659 64.610372 -1.682143 0.832048 -26.705077 3.380818 -1.603432 24.216406 -17.638544 11.946408 -19.977382 0.000000 0.000000 0.000000 -21.132169 -29.361752 17.032033 -21.635433 -45.797761 2.739869 27.953913 -5.081612 -0.621142 0.000000 0.000000 0.000000 9.185453 40.565998 17.024231 38.917349 58.460332 13.910705 -17.990180 24.210991 -2.627852 0.000000 0.000000 0.000000 
0.002927 0.693382 -0.008303 -12.226927 -11.107163 7.735091 33.209314 14.934004 -49.861570 -6.824110 7.112941 77.115732 13.113133 27.071302 -8.939344 0.000000 0.000000 0.000000 -17.486919 1.131216 -54.838347 60.958495 -24.540515 36.804772 -29.300480 -53.693468 12.571235 0.000000 0.000000 0.000000 -9.841363 7.833582 65.026237 -1.536551 0.809810 -26.954603 3.365010 -1.745047 24.121678 -17.167232 11.379308 -21.470468 0.000000 0.000000 0.000000 -22.327672 -28.917159 17.133899 -21.753004 -45.358061 2.675456 27.375774 -5.480285 -0.691198 0.000000 0.000000 0.000000 8.066940 40.469181 16.604681 38.636504 58.377794 13.715097 -17.783720 24.398251 -2.616880 0.000000 0.000000 0.000000 
0.005154 0.702751 -0.011157 -11.887810 -11.183189 7.799024 32.135312 14.021674 -48.909751 -4.569358 4.730841 73.408815 11.802568 24.014419 -7.298340 0.000000 0.000000 0.000000 -16.375426 1.608633 -54.503172 56.950433 -22.933249 37.808722 -28.746810 -52.884069 12.899546 0.000000 0.000000 0.000000 -9.474327 7.597823 64.929487 -0.827210 0.662600 -27.149696 3.127328 -0.948249 23.668027 -16.863191 11.238722 -21.501059 0.000000 0.000000 0.000000 -23.776002 -28.683760 17.193882 -22.862038 -44.100422 2.799979 27.039806 -7.736057 -1.153426 0.000000 0.000000 0.000000 9.360488 40.369892 17.146405 38.227716 57.363692 13.247524 -17.056074 25.625550 -2.612377 0.000000 0.000000 0.000000 
